<svg version="1.1" id="Layer_1" xmlns="http://www.w3.org/2000/svg" xmlns:xlink="http://www.w3.org/1999/xlink" x="0px" y="0px"
	 width="100%" viewBox="0 0 1080 1080" enable-background="new 0 0 1080 1080" xml:space="preserve">
<path fill="#FFFFFF" opacity="1.000000" stroke="none" 
	d="
M717.000000,1081.000000 
	C478.027527,1081.000000 239.555038,1081.000000 1.041282,1081.000000 
	C1.041282,721.069092 1.041282,361.138123 1.041282,1.103596 
	C360.889374,1.103596 720.778809,1.103596 1080.834106,1.103596 
	C1080.834106,360.999939 1080.834106,720.999939 1080.834106,1081.000000 
	C959.804382,1081.000000 838.652161,1081.000000 717.000000,1081.000000 
M670.500000,815.767761 
	C695.456299,815.767761 720.412598,815.767761 745.596558,815.767761 
	C745.596558,813.646057 745.596558,812.094421 745.596558,810.287842 
	C729.831604,809.482300 716.772339,803.285156 705.853699,792.389343 
	C691.619629,778.184875 682.672791,760.814758 675.935425,742.177917 
	C661.048035,700.996826 655.733826,658.010010 655.338806,614.702332 
	C654.408447,512.713013 654.940796,410.710327 654.895569,308.713043 
	C654.895081,307.682220 655.086182,306.651337 655.273743,304.750519 
	C656.609009,306.595703 657.411011,307.615021 658.119324,308.695740 
	C680.758118,343.234955 703.364685,377.795349 726.023865,412.321198 
	C776.000305,488.470520 826.007019,564.599976 875.992615,640.743286 
	C911.358154,694.615845 946.705750,748.500366 982.071533,802.372803 
	C986.823669,809.611633 991.506409,816.903320 996.529053,823.951233 
	C997.538818,825.368225 999.945435,825.789917 1001.708069,826.670471 
	C1002.389832,825.024658 1003.226379,823.421631 1003.697327,821.717468 
	C1003.996887,820.633606 1003.755127,819.399658 1003.753296,818.233032 
	C1003.541992,683.249756 1003.238098,548.266479 1003.211182,413.283142 
	C1003.206787,391.149353 1003.703369,368.962128 1005.338257,346.901093 
	C1006.337524,333.416962 1008.857910,319.807129 1012.649780,306.824707 
	C1018.229004,287.722961 1029.460938,279.895508 1049.315063,278.863068 
	C1053.683594,278.635864 1054.400391,276.932831 1053.103882,273.239685 
	C1004.454529,273.239685 956.016113,273.239685 907.429504,273.239685 
	C907.429504,275.157288 907.429504,276.825745 907.429504,278.542969 
	C929.084229,279.566376 944.152405,290.940491 956.297424,307.284485 
	C971.197083,327.335724 979.053528,350.412628 985.001648,374.271667 
	C994.476746,412.278564 997.447754,451.115326 997.735535,490.055054 
	C998.330444,570.548767 997.971680,651.049622 997.999207,731.547485 
	C997.999512,732.470276 997.920776,733.393066 997.828308,735.434631 
	C996.232239,733.302795 995.220886,732.094788 994.363281,730.785889 
	C956.674683,673.262085 919.014099,615.720032 881.320007,558.199829 
	C819.803162,464.326874 758.255310,370.474243 696.788940,276.568237 
	C695.031067,273.882629 693.146179,272.903076 689.918701,272.918365 
	C661.253357,273.054169 632.587097,272.993286 603.921143,273.009338 
	C602.469543,273.010162 601.018066,273.184448 599.676758,273.270874 
	C598.155212,277.845032 600.198303,278.752777 603.999390,278.867249 
	C619.271973,279.327301 630.936768,285.900635 637.421997,300.069672 
	C639.826660,305.323395 641.616760,310.958801 642.923279,316.597168 
	C648.334717,339.949249 648.669495,363.832794 648.783936,387.578949 
	C649.210327,476.074829 649.237732,564.574036 649.015137,653.070923 
	C648.937195,684.034912 648.275024,715.024719 646.717773,745.944153 
	C646.098328,758.242798 643.179932,770.626221 639.770752,782.530762 
	C635.880737,796.114136 626.954834,805.771790 612.397217,808.785217 
	C608.210754,809.651917 603.907898,809.956665 599.656372,810.519287 
	C598.147095,814.897278 600.179810,815.826904 604.001770,815.811157 
	C625.834229,815.721375 647.667175,815.767395 670.500000,815.767761 
M401.577637,336.189209 
	C402.199615,339.406586 402.821564,342.623962 403.412811,345.682312 
	C407.220490,346.896790 408.001556,345.264282 407.988586,342.042114 
	C407.900726,320.211182 407.949371,298.379700 407.919861,276.548431 
	C407.918365,275.451141 407.601746,274.354309 407.440521,273.313171 
	C281.201843,273.313171 155.284500,273.313171 29.496111,273.313171 
	C29.224762,273.914398 28.978317,274.206024 28.977552,274.498322 
	C28.917812,297.326111 28.892456,320.153961 28.820591,342.981659 
	C28.808548,346.806396 30.941830,346.294434 31.964373,346.032196 
	C34.315498,339.171692 35.022560,332.288513 38.632584,327.678741 
	C44.371243,320.350800 51.445335,313.697357 59.038063,308.276123 
	C71.746902,299.202026 86.599579,294.316010 101.542450,290.132416 
	C123.875725,283.879730 146.743103,280.635010 169.845505,279.182739 
	C178.066437,278.665924 186.347153,279.099945 195.045120,279.099945 
	C195.045120,281.680298 195.045120,283.814941 195.045120,285.949585 
	C195.045120,406.771667 195.186279,527.594055 194.950638,648.415649 
	C194.887985,680.544067 194.219452,712.696167 192.704849,744.784302 
	C192.116241,757.254700 189.250443,769.807190 185.916306,781.907471 
	C182.233765,795.272217 173.800858,805.220215 159.501022,808.556152 
	C155.016647,809.602234 150.363342,809.924072 145.652832,810.596680 
	C143.979950,815.222107 146.526047,815.806641 150.337265,815.801636 
	C194.333084,815.743774 238.329025,815.767578 282.324921,815.750977 
	C283.762054,815.750427 285.199127,815.550720 287.011139,815.415955 
	C286.851135,813.417480 286.726959,811.866150 286.573914,809.954468 
	C284.255920,809.954468 282.430115,810.071350 280.623230,809.935913 
	C266.505829,808.877441 255.725159,802.698914 250.469559,789.081360 
	C248.091507,782.919617 245.731339,776.438354 245.170181,769.945862 
	C243.381500,749.251282 241.390320,728.485779 241.341812,707.743408 
	C241.011703,566.590637 241.158920,425.436737 241.163025,284.283234 
	C241.163071,282.658752 241.308624,281.034241 241.417053,278.765167 
	C243.518646,278.765167 245.298508,278.785217 247.077820,278.762085 
	C267.778656,278.492828 288.300049,280.540863 308.625732,284.213959 
	C330.626160,288.189758 352.187347,293.854706 371.865295,304.914154 
	C384.653534,312.101410 396.317596,320.603333 401.577637,336.189209 
M513.917664,701.500000 
	C513.917664,800.213623 513.917664,898.927246 513.917664,997.486938 
	C517.442139,997.486938 520.015869,997.486938 522.561401,997.486938 
	C522.561401,692.890015 522.561401,388.707367 522.561401,84.422562 
	C519.603821,84.422562 517.026123,84.422562 513.917480,84.422562 
	C513.917480,289.997101 513.917480,495.248566 513.917664,701.500000 
z"/>
<path fill="#BEAB8B" opacity="1.000000" stroke="none" 
	d="
M670.000000,815.767517 
	C647.667175,815.767395 625.834229,815.721375 604.001770,815.811157 
	C600.179810,815.826904 598.147095,814.897278 599.656372,810.519287 
	C603.907898,809.956665 608.210754,809.651917 612.397217,808.785217 
	C626.954834,805.771790 635.880737,796.114136 639.770752,782.530762 
	C643.179932,770.626221 646.098328,758.242798 646.717773,745.944153 
	C648.275024,715.024719 648.937195,684.034912 649.015137,653.070923 
	C649.237732,564.574036 649.210327,476.074829 648.783936,387.578949 
	C648.669495,363.832794 648.334717,339.949249 642.923279,316.597168 
	C641.616760,310.958801 639.826660,305.323395 637.421997,300.069672 
	C630.936768,285.900635 619.271973,279.327301 603.999390,278.867249 
	C600.198303,278.752777 598.155212,277.845032 599.676758,273.270874 
	C601.018066,273.184448 602.469543,273.010162 603.921143,273.009338 
	C632.587097,272.993286 661.253357,273.054169 689.918701,272.918365 
	C693.146179,272.903076 695.031067,273.882629 696.788940,276.568237 
	C758.255310,370.474243 819.803162,464.326874 881.320007,558.199829 
	C919.014099,615.720032 956.674683,673.262085 994.363281,730.785889 
	C995.220886,732.094788 996.232239,733.302795 997.828308,735.434631 
	C997.920776,733.393066 997.999512,732.470276 997.999207,731.547485 
	C997.971680,651.049622 998.330444,570.548767 997.735535,490.055054 
	C997.447754,451.115326 994.476746,412.278564 985.001648,374.271667 
	C979.053528,350.412628 971.197083,327.335724 956.297424,307.284485 
	C944.152405,290.940491 929.084229,279.566376 907.429504,278.542969 
	C907.429504,276.825745 907.429504,275.157288 907.429504,273.239685 
	C956.016113,273.239685 1004.454529,273.239685 1053.103882,273.239685 
	C1054.400391,276.932831 1053.683594,278.635864 1049.315063,278.863068 
	C1029.460938,279.895508 1018.229004,287.722961 1012.649780,306.824707 
	C1008.857910,319.807129 1006.337524,333.416962 1005.338257,346.901093 
	C1003.703369,368.962128 1003.206787,391.149353 1003.211182,413.283142 
	C1003.238098,548.266479 1003.541992,683.249756 1003.753296,818.233032 
	C1003.755127,819.399658 1003.996887,820.633606 1003.697327,821.717468 
	C1003.226379,823.421631 1002.389832,825.024658 1001.708008,826.670471 
	C999.945435,825.789917 997.538818,825.368225 996.529053,823.951233 
	C991.506409,816.903320 986.823669,809.611633 982.071533,802.372803 
	C946.705750,748.500366 911.358154,694.615845 875.992615,640.743286 
	C826.007019,564.599976 776.000305,488.470520 726.023865,412.321198 
	C703.364685,377.795349 680.758118,343.234955 658.119324,308.695740 
	C657.411011,307.615021 656.609009,306.595703 655.273743,304.750519 
	C655.086182,306.651337 654.895081,307.682220 654.895569,308.713043 
	C654.940796,410.710327 654.408447,512.713013 655.338806,614.702332 
	C655.733826,658.010010 661.048035,700.996826 675.935425,742.177917 
	C682.672791,760.814758 691.619629,778.184875 705.853699,792.389343 
	C716.772339,803.285156 729.831604,809.482300 745.596558,810.287842 
	C745.596558,812.094421 745.596558,813.646057 745.596558,815.767761 
	C720.412598,815.767761 695.456299,815.767761 670.000000,815.767517 
z"/>
<path fill="#BDAA8A" opacity="1.000000" stroke="none" 
	d="
M401.427246,335.815613 
	C396.317596,320.603333 384.653534,312.101410 371.865295,304.914154 
	C352.187347,293.854706 330.626160,288.189758 308.625732,284.213959 
	C288.300049,280.540863 267.778656,278.492828 247.077820,278.762085 
	C245.298508,278.785217 243.518646,278.765167 241.417053,278.765167 
	C241.308624,281.034241 241.163071,282.658752 241.163025,284.283234 
	C241.158920,425.436737 241.011703,566.590637 241.341812,707.743408 
	C241.390320,728.485779 243.381500,749.251282 245.170181,769.945862 
	C245.731339,776.438354 248.091507,782.919617 250.469559,789.081360 
	C255.725159,802.698914 266.505829,808.877441 280.623230,809.935913 
	C282.430115,810.071350 284.255920,809.954468 286.573914,809.954468 
	C286.726959,811.866150 286.851135,813.417480 287.011139,815.415955 
	C285.199127,815.550720 283.762054,815.750427 282.324921,815.750977 
	C238.329025,815.767578 194.333084,815.743774 150.337265,815.801636 
	C146.526047,815.806641 143.979950,815.222107 145.652832,810.596680 
	C150.363342,809.924072 155.016647,809.602234 159.501022,808.556152 
	C173.800858,805.220215 182.233765,795.272217 185.916306,781.907471 
	C189.250443,769.807190 192.116241,757.254700 192.704849,744.784302 
	C194.219452,712.696167 194.887985,680.544067 194.950638,648.415649 
	C195.186279,527.594055 195.045120,406.771667 195.045120,285.949585 
	C195.045120,283.814941 195.045120,281.680298 195.045120,279.099945 
	C186.347153,279.099945 178.066437,278.665924 169.845505,279.182739 
	C146.743103,280.635010 123.875725,283.879730 101.542450,290.132416 
	C86.599579,294.316010 71.746902,299.202026 59.038063,308.276123 
	C51.445335,313.697357 44.371243,320.350800 38.632584,327.678741 
	C35.022560,332.288513 34.315498,339.171692 31.964373,346.032196 
	C30.941830,346.294434 28.808548,346.806396 28.820591,342.981659 
	C28.892456,320.153961 28.917812,297.326111 28.977552,274.498322 
	C28.978317,274.206024 29.224762,273.914398 29.496111,273.313171 
	C155.284500,273.313171 281.201843,273.313171 407.440521,273.313171 
	C407.601746,274.354309 407.918365,275.451141 407.919861,276.548431 
	C407.949371,298.379700 407.900726,320.211182 407.988586,342.042114 
	C408.001556,345.264282 407.220490,346.896790 403.412811,345.682312 
	C402.821564,342.623962 402.199615,339.406586 401.427246,335.815613 
z"/>
<path fill="#BEAC8C" opacity="1.000000" stroke="none" 
	d="
M513.917603,701.000000 
	C513.917480,495.248566 513.917480,289.997101 513.917480,84.422562 
	C517.026123,84.422562 519.603821,84.422562 522.561401,84.422562 
	C522.561401,388.707367 522.561401,692.890015 522.561401,997.486938 
	C520.015869,997.486938 517.442139,997.486938 513.917664,997.486938 
	C513.917664,898.927246 513.917664,800.213623 513.917603,701.000000 
z"/>
</svg>